<mxfile host="app.diagrams.net" modified="2023-12-18T23:10:16.363Z" agent="Mozilla/5.0 (Windows NT 10.0; Win64; x64) AppleWebKit/537.36 (KHTML, like Gecko) Chrome/120.0.0.0 Safari/537.36" etag="ZwHE_z7-khOvkwpatrNp" version="22.1.11" type="device">
  <diagram name="Page-1" id="e7e014a7-5840-1c2e-5031-d8a46d1fe8dd">
    <mxGraphModel dx="378" dy="325" grid="1" gridSize="10" guides="1" tooltips="1" connect="1" arrows="1" fold="1" page="1" pageScale="1" pageWidth="1169" pageHeight="826" background="none" math="0" shadow="0">
      <root>
        <mxCell id="0" />
        <mxCell id="1" parent="0" />
        <mxCell id="Iisope9N4qdOLBIXsUHn-41" value="" style="rounded=0;whiteSpace=wrap;html=1;" vertex="1" parent="1">
          <mxGeometry x="520" y="470" width="120" height="60" as="geometry" />
        </mxCell>
        <mxCell id="Iisope9N4qdOLBIXsUHn-42" value="Ведение клиентов и продуктов фирмы" style="text;html=1;strokeColor=none;fillColor=none;align=center;verticalAlign=middle;whiteSpace=wrap;rounded=0;" vertex="1" parent="1">
          <mxGeometry x="512.5" y="485" width="135" height="30" as="geometry" />
        </mxCell>
        <mxCell id="Iisope9N4qdOLBIXsUHn-44" value="" style="endArrow=classic;html=1;rounded=0;entryX=0;entryY=0.167;entryDx=0;entryDy=0;entryPerimeter=0;" edge="1" parent="1" target="Iisope9N4qdOLBIXsUHn-41">
          <mxGeometry width="50" height="50" relative="1" as="geometry">
            <mxPoint x="460" y="480" as="sourcePoint" />
            <mxPoint x="470" y="510" as="targetPoint" />
          </mxGeometry>
        </mxCell>
        <mxCell id="Iisope9N4qdOLBIXsUHn-45" value="" style="endArrow=classic;html=1;rounded=0;entryX=0;entryY=0.167;entryDx=0;entryDy=0;entryPerimeter=0;" edge="1" parent="1">
          <mxGeometry width="50" height="50" relative="1" as="geometry">
            <mxPoint x="460" y="515" as="sourcePoint" />
            <mxPoint x="520" y="515" as="targetPoint" />
          </mxGeometry>
        </mxCell>
        <mxCell id="Iisope9N4qdOLBIXsUHn-46" value="" style="endArrow=classic;html=1;rounded=0;entryX=0.25;entryY=0;entryDx=0;entryDy=0;" edge="1" parent="1" target="Iisope9N4qdOLBIXsUHn-41">
          <mxGeometry width="50" height="50" relative="1" as="geometry">
            <mxPoint x="550" y="420" as="sourcePoint" />
            <mxPoint x="580" y="420" as="targetPoint" />
          </mxGeometry>
        </mxCell>
        <mxCell id="Iisope9N4qdOLBIXsUHn-47" value="" style="endArrow=classic;html=1;rounded=0;entryX=0.668;entryY=-0.007;entryDx=0;entryDy=0;entryPerimeter=0;" edge="1" parent="1" target="Iisope9N4qdOLBIXsUHn-41">
          <mxGeometry width="50" height="50" relative="1" as="geometry">
            <mxPoint x="600" y="420" as="sourcePoint" />
            <mxPoint x="660" y="420" as="targetPoint" />
          </mxGeometry>
        </mxCell>
        <mxCell id="Iisope9N4qdOLBIXsUHn-48" value="" style="endArrow=classic;html=1;rounded=0;entryX=0;entryY=0.167;entryDx=0;entryDy=0;entryPerimeter=0;" edge="1" parent="1">
          <mxGeometry width="50" height="50" relative="1" as="geometry">
            <mxPoint x="580" y="570" as="sourcePoint" />
            <mxPoint x="579.8" y="530" as="targetPoint" />
          </mxGeometry>
        </mxCell>
        <mxCell id="Iisope9N4qdOLBIXsUHn-49" value="Пользователи" style="text;html=1;strokeColor=none;fillColor=none;align=center;verticalAlign=middle;whiteSpace=wrap;rounded=0;" vertex="1" parent="1">
          <mxGeometry x="550" y="560" width="60" height="30" as="geometry" />
        </mxCell>
        <mxCell id="Iisope9N4qdOLBIXsUHn-50" value="" style="endArrow=classic;html=1;rounded=0;" edge="1" parent="1">
          <mxGeometry width="50" height="50" relative="1" as="geometry">
            <mxPoint x="640" y="499.8" as="sourcePoint" />
            <mxPoint x="730" y="500" as="targetPoint" />
          </mxGeometry>
        </mxCell>
        <mxCell id="Iisope9N4qdOLBIXsUHn-51" value="&lt;font style=&quot;font-size: 8px;&quot;&gt;Обновлённая информация об клиентах и продуктах&lt;/font&gt;" style="text;html=1;strokeColor=none;fillColor=none;align=center;verticalAlign=middle;whiteSpace=wrap;rounded=0;" vertex="1" parent="1">
          <mxGeometry x="640" y="460" width="110" height="35" as="geometry" />
        </mxCell>
        <mxCell id="Iisope9N4qdOLBIXsUHn-52" value="Клиент" style="text;html=1;strokeColor=none;fillColor=none;align=center;verticalAlign=middle;whiteSpace=wrap;rounded=0;" vertex="1" parent="1">
          <mxGeometry x="453" y="455" width="60" height="30" as="geometry" />
        </mxCell>
        <mxCell id="Iisope9N4qdOLBIXsUHn-53" value="Продукт" style="text;html=1;strokeColor=none;fillColor=none;align=center;verticalAlign=middle;whiteSpace=wrap;rounded=0;" vertex="1" parent="1">
          <mxGeometry x="452.5" y="485" width="60" height="30" as="geometry" />
        </mxCell>
        <mxCell id="Iisope9N4qdOLBIXsUHn-54" value="&lt;font style=&quot;font-size: 8px;&quot;&gt;Информация о клиенте&lt;/font&gt;" style="text;html=1;strokeColor=none;fillColor=none;align=center;verticalAlign=middle;whiteSpace=wrap;rounded=0;" vertex="1" parent="1">
          <mxGeometry x="500" y="413" width="40" height="30" as="geometry" />
        </mxCell>
        <mxCell id="Iisope9N4qdOLBIXsUHn-55" value="&lt;font style=&quot;font-size: 8px;&quot;&gt;Информация о продукте&lt;/font&gt;" style="text;html=1;strokeColor=none;fillColor=none;align=center;verticalAlign=middle;whiteSpace=wrap;rounded=0;" vertex="1" parent="1">
          <mxGeometry x="607.5" y="413" width="40" height="30" as="geometry" />
        </mxCell>
      </root>
    </mxGraphModel>
  </diagram>
</mxfile>
